<mxfile host="app.diagrams.net" modified="2024-01-28T14:09:41.785Z" agent="Mozilla/5.0 (Windows NT 10.0; Win64; x64; rv:122.0) Gecko/20100101 Firefox/122.0" version="23.0.2" etag="Bal_eGUIEHLH0gi1O0Dg" type="github">
  <diagram name="PÃ¡gina-1" id="Lh5SeaxZcp7SQQzKed89">
    <mxGraphModel>
      <root>
        <mxCell id="0" />
        <mxCell id="1" parent="0" />
      </root>
    </mxGraphModel>
  </diagram>
</mxfile>
